<?xml version="1.0" encoding="utf-8"?>
<!-- Generator: Adobe Illustrator 24.1.2, SVG Export Plug-In . SVG Version: 6.00 Build 0)  -->
<svg version="1.1" id="Layer_1" xmlns="http://www.w3.org/2000/svg" xmlns:xlink="http://www.w3.org/1999/xlink" x="0px" y="0px"
	 viewBox="0 0 398.19 366.99" style="enable-background:new 0 0 398.19 366.99;" xml:space="preserve">
<g>
	<g>
		<path d="M299.86,158.8c-6.23,10.41-14.08,19.84-23.2,27.84c-19.66,17.23-43.59,21.58-69.21,21.58h-56.81v-46.56
			c-8.09-3.63-14.06-7.43-18.5-11.38v163.11c0,43.77-21.88,42.93-21.88,42.93v2.94h64.09v-2.94h-2.07
			c-2.41-0.06-21.64-1.89-21.64-42.93v-92.46c0.44-0.74,8.9-0.06,10.08-0.07c3.52-0.04,7.04-0.09,10.56-0.12
			c11.35-0.09,22.63,0.86,33.97,0.95c11.93,0.09,23.88-0.84,35.65-2.79c-3.55-1.76-7.18-3.34-10.88-4.74
			c25.41-2.08,52.85-9.99,68.48-31.62c1.88-2.6,3.55-5.34,5.03-8.18c7.57-14.58,9.49-30.94,9.31-47.14
			C312.95,137.09,304.77,150.59,299.86,158.8z"/>
		<path d="M229.94,211.89c12.77,1.05,25.97-0.51,38.16-4.8c12.17-4.24,23.11-12.04,32.01-21.58c4.42-4.84,8.46-10.31,13.63-14.87
			c2.54-2.3,5.59-4.24,8.77-5.52c3.19-1.32,6.64-2.19,10.2-1.96c3.52,0.16,7.19,2.13,8.8,5.34c1.88,3.05,1.9,7.02,0.33,10.12
			c-1.55,3.22-4.97,5.09-8.31,5.41c-3.4,0.34-6.73-0.44-9.89-1.46c3.2,0.89,6.56,1.5,9.84,1.02c3.24-0.46,6.3-2.38,7.57-5.35
			c1.3-2.9,1.11-6.47-0.67-9.05c-1.59-2.76-4.64-4.21-7.75-4.25c-3.14-0.07-6.3,0.85-9.21,2.22c-2.95,1.36-5.55,3.17-7.86,5.45
			c-4.69,4.51-8.4,10.02-12.75,15.24c-8.83,10.36-19.89,19.07-32.79,24.24c-12.81,5.14-26.64,7.43-40.52,6.93L229.94,211.89z"/>
		<path d="M231.32,211.59c11.4,6.41,20.94,15.65,27.64,26.71c6.72,11.16,9.51,24.03,10.31,36.53c0.22,3.14,0.3,6.28,0.39,9.39
			c0.07,3.11,0.12,6.17,0.54,9.14c0.41,2.97,1.25,5.84,2.71,8.42c1.42,2.57,3.45,4.87,6.09,5.98c2.62,1.11,5.81,0.93,8.26-0.64
			c2.47-1.55,4.26-4.24,4.95-7.14c0.75-2.89-0.07-6.17-2.3-8.28c-2.19-2.16-5.24-3.24-8.23-3.98c3.02,0.61,6.13,1.53,8.52,3.67
			c2.43,2.08,3.51,5.6,2.84,8.76c-0.61,3.15-2.36,6.13-5.08,8.03c-2.72,1.93-6.42,2.34-9.58,1.16c-3.2-1.18-5.61-3.74-7.3-6.48
			c-1.74-2.76-2.81-5.92-3.39-9.08c-0.6-3.16-0.79-6.33-1-9.43c-0.23-3.09-0.45-6.16-0.8-9.21c-1.34-12.17-4.6-24.17-11.25-34.12
			c-6.64-9.91-15.98-18.09-26.51-23.36L231.32,211.59z"/>
		<g>
			<path d="M232.86,216.33c1.05-0.85,2.54-1.1,3.9-0.86c1.39,0.23,2.66,0.9,3.79,1.66c2.19,1.62,4.15,3.42,6.1,5.25
				c3.88,3.67,7.37,7.65,11.3,11.02c3.87,3.42,8.23,6.3,13.12,7.73c4.86,1.36,10.36,1.2,15-1.46c-2,1.78-4.59,2.87-7.25,3.45
				c-2.7,0.5-5.49,0.41-8.2-0.11c-5.47-1.1-10.24-4.2-14.31-7.71c-4.07-3.59-7.53-7.65-11.03-11.57c-1.74-1.96-3.55-3.9-5.47-5.62
				c-0.94-0.86-1.99-1.61-3.19-1.99C235.42,215.76,234.06,215.72,232.86,216.33z"/>
		</g>
		<path d="M312.65,189.78c-1.13-0.78-1.79-2.17-1.94-3.57c-0.17-1.42,0.12-2.85,0.55-4.17c0.94-2.6,2.12-5.04,3.38-7.44
			c2.51-4.81,5.38-9.34,7.57-14.13c2.23-4.74,3.83-9.81,3.82-14.98c-0.08-5.11-1.71-10.45-5.65-14.22c2.3,1.45,4.09,3.66,5.41,6.1
			c1.27,2.48,2,5.23,2.23,8.03c0.44,5.65-1.21,11.18-3.49,16.14c-2.34,4.99-5.34,9.5-8.16,14.04c-1.39,2.27-2.8,4.57-3.95,6.92
			c-0.57,1.16-1.01,2.39-1.03,3.67C311.37,187.44,311.72,188.79,312.65,189.78z"/>
		<path d="M310.79,170.82c-0.65-1.7-0.33-3.76,0.6-5.45c0.93-1.73,2.42-3.05,3.93-4.16c3.07-2.09,6.22-3.78,9.47-5.33
			c6.45-3.15,13.06-5.61,19.1-8.82c6.07-3.1,11.69-6.97,15.85-12.11c4.06-5.18,6.79-11.75,6.19-18.93
			c1.45,3.31,1.73,7.14,1.21,10.83c-0.58,3.7-1.96,7.28-3.97,10.49c-1.98,3.27-4.67,5.97-7.51,8.41c-2.9,2.38-6.07,4.32-9.3,6.06
			c-6.55,3.34-13.35,5.6-19.97,7.91c-3.28,1.18-6.64,2.35-9.74,3.74c-1.53,0.68-2.94,1.55-4.04,2.75
			C311.53,167.42,310.71,169.01,310.79,170.82z"/>
	</g>
	<g>
		<circle cx="350.39" cy="353.07" r="2.11"/>
		<circle cx="356.47" cy="351.47" r="1.05"/>
	</g>
	<g>
		<path d="M122.46,136.62c3.38,3.81,6.34,7.66,9.66,10.94c3.27,3.32,6.86,6.05,10.78,8.36c3.93,2.29,8.18,4.16,12.64,5.84
			c4.46,1.71,9.1,3.17,13.84,5.03c-5.03,0.82-10.1,0.67-15.14-0.14c-5.02-0.84-10.03-2.51-14.59-5.18
			c-4.55-2.66-8.57-6.38-11.45-10.73C125.32,146.37,123.44,141.6,122.46,136.62z"/>
	</g>
	<g>
		<g>
			<path d="M337.45,362.17c4.34,0.79,8.77,0.29,12.89-1.02c4.13-1.31,8.01-3.39,11.38-6.07c1.73-1.32,3.21-2.78,4.6-4.49
				c1.43-1.67,2.96-3.34,4.76-4.72c1.81-1.36,3.65-2.48,5.36-3.82c1.7-1.34,3.48-2.65,4.95-4.15c1.47-1.51,2.69-3.27,3.4-5.22
				c0.71-1.93,0.88-4.09,0.25-6.01c-0.32-0.94-0.84-1.83-1.57-2.41c-0.69-0.56-1.72-0.83-2.66-0.81c-1.95,0.04-3.78,1.35-5.11,2.94
				c-2.75,3.25-3.64,7.72-4.15,11.99c-0.26,2.17-0.5,4.4-1.23,6.5c-0.69,2.11-1.83,4.04-3.18,5.77c1.23-1.81,2.24-3.78,2.82-5.88
				c0.61-2.09,0.75-4.27,0.91-6.46c0.15-2.19,0.46-4.41,1.06-6.56c0.57-2.14,1.5-4.28,2.93-6.06c1.4-1.74,3.38-3.39,5.9-3.51
				c1.23-0.02,2.47,0.26,3.51,1.06c0.99,0.79,1.62,1.88,2.02,3c0.77,2.27,0.58,4.73-0.2,6.9c-0.77,2.19-2.09,4.12-3.66,5.76
				c-3.19,3.2-6.98,5.6-10.51,8.07c-1.7,1.27-3.17,2.85-4.6,4.48c-1.39,1.68-3.07,3.3-4.84,4.62c-3.59,2.66-7.64,4.64-11.92,5.83
				C346.28,363.07,341.72,363.21,337.45,362.17z"/>
			<path d="M380.16,340.04c2.74-0.66,5.41-1.8,7.39-3.75c2.01-1.93,3.1-4.6,3.49-7.33c0.41-2.74,0.25-5.58,0.21-8.4
				c-0.05-2.77-0.11-5.86,1.57-8.25c-1.44,2.51-1.16,5.45-1.04,8.23c0.15,2.82,0.31,5.66-0.06,8.53c-0.46,2.82-1.62,5.67-3.81,7.61
				C385.76,338.66,382.94,339.64,380.16,340.04z"/>
			<path d="M386,330.74c0.08-2.44-0.1-4.88,0.25-7.35c0.33-2.49,1.54-4.77,2.9-6.8c1.4-2.03,3.07-3.85,4.42-5.83
				c0.65-0.99,1.25-2.08,1.29-3.25c0.02-0.57-0.09-1.18-0.46-1.65c-0.32-0.46-0.99-0.81-1.55-0.47c0.52-0.4,1.29-0.11,1.68,0.36
				c0.44,0.47,0.63,1.12,0.67,1.76c0.03,1.3-0.56,2.48-1.18,3.54c-1.31,2.12-2.97,3.91-4.3,5.94c-1.39,1.97-2.52,4.13-2.95,6.5
				C386.35,325.85,386.33,328.32,386,330.74z"/>
			<path d="M381.6,339.76c2.48-0.96,4.37-3.01,5.21-5.44c0.87-2.43,1.01-5.08,1.1-7.69l0.2-3.95c0.11-1.3,0.11-2.66,0.54-3.97
				c0.39-1.33,1.41-2.46,2.64-3.01c1.19-0.55,2.5-0.97,3.28-2.08c-0.68,1.18-2.01,1.74-3.12,2.38c-1.15,0.6-1.98,1.64-2.29,2.86
				c-0.32,1.22-0.34,2.54-0.42,3.85l-0.14,3.94c-0.15,2.62-0.27,5.34-1.3,7.85C386.34,337.04,384.16,339.05,381.6,339.76z"/>
			<g>
				<path d="M371.01,340.35c-1.7-2.43-2.53-5.49-2.24-8.5c0.26-3.02,1.55-5.87,3.3-8.29c1.79-2.44,4.11-4.35,6.34-6.28
					c2.21-1.9,4.69-3.75,5.57-6.66c-0.61,3-3.08,5.12-5.21,7.07c-2.17,2-4.45,3.91-6.15,6.27c-1.75,2.32-2.97,5.05-3.34,7.94
					C368.93,334.78,369.52,337.79,371.01,340.35z"/>
				<path d="M371.75,337.64c-1.25-2.34-1.28-5.31-0.11-7.75c1.13-2.48,3.01-4.43,4.82-6.34l2.77-2.81c0.91-0.96,1.84-1.88,2.52-2.95
					c0.69-1.06,0.87-2.39,0.51-3.63c-0.3-1.24-0.8-2.6-0.41-3.9c-0.27,1.33,0.33,2.56,0.74,3.81c0.45,1.27,0.32,2.79-0.38,3.99
					c-0.66,1.21-1.64,2.15-2.52,3.12l-2.73,2.86c-1.84,1.86-3.67,3.78-4.83,6.08C370.94,332.39,370.74,335.18,371.75,337.64z"/>
			</g>
			<path d="M385.28,325.53c-0.82-1.3-0.69-3.01-0.22-4.42c0.44-1.43,1.07-2.84,1.8-4.13c0.72-1.28,1.43-2.6,1.61-3.99
				c0.08-0.67-0.01-1.45-0.45-1.93c-0.42-0.51-1.38-0.23-1.76,0.4c0.26-0.65,1.23-1.24,1.98-0.65c0.63,0.59,0.76,1.44,0.75,2.22
				c-0.09,1.6-0.86,2.97-1.54,4.29c-0.79,1.27-1.36,2.59-1.91,3.97C385.05,322.62,384.71,324.12,385.28,325.53z"/>
			<path d="M390.69,331.85c-0.27,2.75-0.95,5.55-2.6,7.88c-1.61,2.35-4.09,3.96-6.64,5.09c-2.59,1.1-5.28,1.81-7.9,2.67
				c-2.59,0.87-5.23,1.9-7.11,3.99c1.68-2.27,4.35-3.54,6.93-4.49c2.61-0.97,5.3-1.68,7.8-2.8c2.52-1.05,4.85-2.59,6.49-4.77
				C389.31,337.24,390.17,334.57,390.69,331.85z"/>
			<path d="M397.8,321.77c0.44-0.2,0.36-0.76,0.27-1.14c-0.09-0.41-0.25-0.85-0.6-1.05c-0.74-0.39-1.64,0.08-2.22,0.61
				c-1.28,1.14-1.46,2.98-1.35,4.65c0.11,1.68,0.38,3.52-0.2,5.26c-0.52,1.73-1.51,3.23-2.48,4.66c-1.96,2.92-4.86,5.26-8.16,6.47
				c-3.24,1.29-6.68,1.98-9.64,3.84c2.82-2.09,6.29-2.98,9.43-4.33c3.19-1.29,5.92-3.5,7.79-6.37c0.99-1.41,1.94-2.85,2.45-4.45
				c0.56-1.6,0.3-3.3,0.27-5.06c-0.05-1.7,0.2-3.73,1.66-4.92c0.68-0.53,1.68-1,2.53-0.5c0.4,0.28,0.52,0.76,0.59,1.18
				C398.22,321,398.25,321.6,397.8,321.77z"/>
			<path d="M374.62,312.06c0.49,1.89,0.49,4.14-0.85,5.77c-0.69,0.77-1.53,1.31-2.05,2.15c-0.55,0.81-0.94,1.72-1.24,2.66
				c-0.59,1.89-0.76,3.89-1.22,5.85c-0.23,0.98-0.54,1.96-1.01,2.87c-0.47,0.92-1.13,1.71-1.71,2.5c-0.58,0.79-1.15,1.61-1.33,2.53
				c-0.2,0.93-0.15,1.94-0.31,2.96c-0.3,1.96-0.37,3.94-0.5,5.95c-0.26,4.01-1.43,8.04-3.65,11.44l-0.47-0.34
				c1.87-1.95,4.49-2.39,6.86-2.98c2.43-0.52,4.87-0.9,7.28-1.43c2.4-0.54,4.8-1.18,6.98-2.3c2.17-1.1,4.08-2.94,4.74-5.37
				c-0.57,2.45-2.45,4.4-4.62,5.59c-2.18,1.24-4.61,1.91-7.01,2.47c-2.42,0.56-4.86,0.97-7.26,1.52c-2.34,0.58-4.93,1.13-6.52,2.87
				l-0.01,0.01c-0.11,0.12-0.29,0.13-0.41,0.02c-0.11-0.1-0.12-0.25-0.05-0.37c2.15-3.33,3.13-7.25,3.48-11.19
				c0.16-1.97,0.26-3.99,0.58-5.98c0.17-0.95,0.13-1.96,0.35-2.99c0.23-1.06,0.86-1.92,1.46-2.72c0.61-0.8,1.25-1.55,1.7-2.41
				c0.46-0.86,0.76-1.8,1-2.75c0.48-1.92,0.66-3.93,1.29-5.86c0.32-0.96,0.73-1.91,1.34-2.73c0.58-0.86,1.49-1.41,2.15-2.1
				C374.94,316.19,375.05,313.97,374.62,312.06z"/>
		</g>
		<path d="M380.18,329.25c-0.12-0.1-0.28-0.14-0.5-0.09c-0.48,0.09-1,0.33-1.43,0.57c-0.73,0.42-1.38,0.96-1.94,1.58
			c-0.86,0.97-1.5,2.15-1.81,3.42c-0.17,0.72-0.1,2.89,1.18,1.9c-0.16,0.13,0.23,0.84,0.33,0.94c0.23,0.24,0.53,0.34,0.86,0.33
			c1.06-0.04,1.91-1.08,2.49-1.86c1.19-1.6,1.7-3.7,1.24-5.65C380.51,329.97,380.45,329.47,380.18,329.25z"/>
		<path d="M368.31,349.36c0.41-2.57,1-5.17,0.97-7.72c-0.13-1.27-0.48-2.56-0.51-3.89c-0.07-1.32-0.01-2.64,0.17-3.95
			c0.17-1.31,0.49-2.6,0.91-3.85c0.45-1.24,0.99-2.43,1.51-3.64c1.1-2.37,2.22-4.73,3.38-7.07c-0.96,2.43-1.96,4.85-2.97,7.25
			c-0.47,1.21-1.02,2.4-1.43,3.62c-0.4,1.23-0.67,2.49-0.87,3.77c-0.44,2.58-0.16,5.12,0.17,7.75
			C369.61,344.3,368.84,346.81,368.31,349.36z"/>
	</g>
	<g>
		<path d="M294.81,87.91c-0.31-0.24-0.63-0.47-0.96-0.69l-0.23-0.16l-0.28-0.2c-0.18-0.11-0.36-0.21-0.54-0.32l-0.11-0.06
			l-0.42-0.26c-0.18-0.11-0.36-0.18-0.55-0.28l-0.55-0.28c-0.18-0.1-0.36-0.19-0.56-0.26c-0.38-0.16-0.76-0.31-1.14-0.48
			c-0.58-0.22-1.17-0.41-1.77-0.56c-1.38-2.25-2.85-4.43-4.44-6.53c-0.62-0.83-1.26-1.65-1.92-2.45c-0.33-0.4-0.65-0.79-1-1.18
			c-1.67-1.97-3.45-3.84-5.3-5.61c-0.57-0.55-1.14-1.08-1.73-1.6c-5.48-4.93-11.67-8.98-18.43-11.78
			c-10.32-4.35-21.62-6.33-33.05-7.18c-11.29-0.86-23.12,0.1-35.24-1.45c-6.01-0.77-12.21-2.23-17.88-5.16
			c-2.83-1.46-5.52-3.3-7.88-5.52c-2.33-2.24-4.35-4.85-5.82-7.8c-1.49-2.91-2.4-6.26-2.49-9.55c-0.1-3.3,0.45-6.64,1.89-9.67
			c1.39-3.03,3.75-5.79,6.86-7.37c1.55-0.78,3.24-1.25,4.92-1.4c1.69-0.16,3.33-0.02,4.94,0.32c3.23,0.75,6.12,2.52,8.27,4.9
			c2.15,2.37,3.6,5.43,3.8,8.61c0.23,3.18-0.77,6.32-2.58,8.78c-0.92,1.24-2.07,2.29-3.39,3.03c-1.31,0.75-2.81,1.14-4.28,1.11
			c1.46-0.18,2.83-0.75,3.97-1.59c1.15-0.84,2.09-1.94,2.78-3.16c1.41-2.42,1.97-5.29,1.49-7.94c-0.9-5.35-5.68-9.57-10.74-10.24
			c-2.57-0.37-5.16-0.01-7.21,1.23c-2.06,1.23-3.61,3.26-4.5,5.6c-0.9,2.35-1.25,4.96-1.03,7.5c0.2,2.55,0.98,4.96,2.26,7.21
			c1.26,2.24,2.97,4.25,4.94,5.98c1.96,1.74,4.19,3.18,6.6,4.33c4.85,2.32,10.25,3.48,15.86,4.04c11.2,1.22,22.91,0.19,34.98,1.08
			c5.96,0.48,11.94,1.24,17.85,2.53c5.91,1.3,11.77,3.09,17.35,5.64c11.24,5.06,20.96,13.19,28.12,22.94c0.51,0.67,1,1.37,1.49,2.06
			c0.73,1.05,1.43,2.1,2.11,3.18c1.06,1.7,2.07,3.42,3.01,5.19c0.02,0.06,0.06,0.11,0.08,0.16c0.27,0.5,0.52,1,0.78,1.51
			c0.03,0.08,0.07,0.15,0.1,0.21C293.86,85.46,294.36,86.68,294.81,87.91z"/>
		<g>
			<g>
				<path d="M278.18,116.17c0.01,2.55-0.16,5.1-0.48,7.63c-0.09,0.62-0.16,1.27-0.28,1.88l-0.32,1.82l-0.15,0.91l-0.19,0.9
					l-0.38,1.79c-1.09,4.77-2.59,9.43-4.43,13.92c-1.83,4.5-4.01,8.82-6.52,12.94c-2.5,4.13-5.3,8.06-8.4,11.73
					c-0.88,1.04-1.77,2.05-2.69,3.05c-2.31,2.52-4.78,4.91-7.37,7.13c-1.81,1.55-3.66,3.05-5.58,4.44c-1.93,1.4-3.9,2.72-5.93,3.95
					c-4.07,2.43-8.33,4.49-12.75,6.08c-4.41,1.57-8.94,2.69-13.51,3.22c2.55-1.22,5.03-2.52,7.42-3.91
					c0.04-0.02,0.08-0.04,0.12-0.07c1.46-0.85,2.9-1.72,4.29-2.64c2.53-1.68,4.97-3.47,7.29-5.35c1.09-0.88,2.15-1.78,3.19-2.71
					c1.63-1.46,3.22-2.97,4.73-4.53c1.52-1.56,3.01-3.14,4.43-4.79c2.81-3.3,5.45-6.74,7.83-10.31c2.38-3.57,4.53-7.27,6.44-11.09
					l0.37-0.71l0.34-0.72l0.68-1.44l1.3-2.92c0.81-1.96,1.6-3.93,2.28-5.93c1.05-3.04,1.97-6.1,2.7-9.2
					c0.24-0.98,0.46-1.97,0.65-2.96l0.29-1.53l0.15-0.78l0.12-0.77l0.23-1.54c0.09-0.52,0.12-0.99,0.19-1.49
					c0.23-1.98,0.35-3.98,0.35-5.97c0-1.99-0.12-3.98-0.37-5.94c-0.22-1.95-0.6-3.88-1.08-5.74c-0.97-3.74-2.47-7.24-4.5-10.25
					c-1.74-2.54-3.88-4.72-6.39-6.43c-0.45-0.31-0.91-0.6-1.39-0.88l-0.58-0.35c-0.2-0.1-0.41-0.2-0.61-0.31l-0.12-0.06l-0.48-0.25
					c-0.2-0.1-0.41-0.17-0.61-0.27l-0.61-0.27c-0.2-0.09-0.41-0.18-0.62-0.24c-0.43-0.14-0.85-0.29-1.27-0.44
					c-0.64-0.19-1.3-0.36-1.96-0.48c-1.13-0.24-2.28-0.41-3.46-0.5c-1.88-0.14-3.79-0.04-5.7,0.23c-0.97,0.13-1.94,0.32-2.9,0.55
					c-0.94,0.22-1.87,0.5-2.77,0.83c-3.69,1.33-7.22,3.36-9.98,6.18c-1.41,1.4-2.6,2.99-3.55,4.74c-0.21,0.44-0.46,0.88-0.65,1.35
					l-0.55,1.4c-0.13,0.49-0.27,0.98-0.41,1.47c-0.13,0.49-0.19,1-0.3,1.51c-0.3,2.04-0.27,4.19,0.08,6.35
					c0.13,0.79,0.31,1.56,0.53,2.34c0.38,1.37,0.87,2.72,1.4,4.1l-1.08-1.33c-0.18-0.23-0.38-0.46-0.54-0.69l-0.48-0.72l-0.49-0.73
					c-0.16-0.24-0.33-0.49-0.45-0.75l-0.83-1.58c-0.99-2.17-1.69-4.56-1.91-7.06c-0.03-0.62-0.09-1.25-0.08-1.89
					c0.02-0.63,0.05-1.26,0.09-1.9l0.29-1.9c0.11-0.63,0.3-1.24,0.45-1.88c0.7-2.48,1.86-4.82,3.29-6.97
					c0.69-1.09,1.53-2.08,2.38-3.06l1.33-1.41l1.43-1.31c1.69-1.48,3.56-2.76,5.53-3.9h0.01c0.28-0.16,0.55-0.32,0.84-0.47
					c2.26-1.24,4.7-2.18,7.22-2.89l0.95-0.27c0.32-0.09,0.63-0.14,0.96-0.21l0.63-0.13l0.34-0.07c0.3-0.06,0.6-0.12,0.91-0.16
					c0.02,0,0.04-0.01,0.06-0.01l1.97-0.28c0.36-0.03,0.71-0.06,1.08-0.08c0.3-0.02,0.6-0.04,0.91-0.06
					c0.71-0.03,1.43-0.04,2.15-0.02c1.97,0.03,3.95,0.23,5.92,0.6c0.15,0.03,0.3,0.07,0.45,0.1c0.52,0.12,1.04,0.24,1.56,0.37
					c0.34,0.08,0.66,0.18,0.99,0.3l0.53,0.17l0.46,0.14c0.33,0.11,0.66,0.21,0.98,0.33l0.95,0.39c0.32,0.12,0.63,0.24,0.95,0.39
					l0.92,0.43c2.5,1.19,4.85,2.7,7.01,4.48c1.4,1.14,2.7,2.4,3.89,3.74c0.62,0.68,1.2,1.4,1.75,2.12c0.61,0.81,1.19,1.63,1.74,2.48
					c0.03,0.06,0.07,0.11,0.1,0.16c0.33,0.52,0.64,1.05,0.96,1.58c0.04,0.08,0.09,0.15,0.12,0.22c0.72,1.25,1.36,2.54,1.94,3.84
					c0.87,1.96,1.58,3.96,2.16,5.97C277.51,105.96,278.17,111.08,278.18,116.17z"/>
				<path d="M237.59,109.07c0,6.45-5.23,11.67-11.67,11.67c-6.45,0-11.67-5.23-11.67-11.67c0-6.7,5.88-12.16,12.58-11.64
					C232.83,97.9,237.59,103.06,237.59,109.07z"/>
			</g>
			<circle cx="291.39" cy="89.3" r="8.07"/>
			<circle cx="291.39" cy="121.86" r="8.07"/>
		</g>
		<g>
			<path d="M115.09,175.24c-3.11,5.1-6.74,9.89-10.79,14.39c-4.03,4.52-8.55,8.67-13.52,12.37c-9.89,7.34-22.11,12.86-35.54,13.47
				c-3.32,0.07-6.7,0.07-10.04-0.4c-3.34-0.44-6.64-1.22-9.86-2.25c-6.49-2.1-12.44-5.23-18.01-9.76
				c-5.49-4.51-9.88-10.5-12.75-16.97c-2.86-6.5-4.22-13.42-4.54-20.18c-0.25-6.78,0.54-13.44,2.1-19.85
				c1.6-6.36,4.09-12.64,6.93-18.15c5.72-11.12,12.41-20.63,17.15-30.5c4.55-9.74,7.88-20.77,7.9-31.51
				c-0.02-5.36-1.04-10.66-3.74-15.28c-2.65-4.67-7.43-8.19-12.97-10.43c1.46,0.19,2.96,0.4,4.47,0.66
				c1.46,0.39,2.91,0.91,4.41,1.38c1.37,0.71,2.8,1.43,4.14,2.29c1.2,1.02,2.64,1.89,3.7,3.11c4.62,4.68,7.22,11.07,8.43,17.37
				c1.2,6.36,1.18,12.79,0.46,19.05c-0.73,6.26-2.13,12.45-4.24,18.49c-4.22,11.98-10.48,22.32-14.95,32.44
				c-2.27,5.09-4.01,9.88-5.1,15c-1.15,5.05-1.68,10.21-1.45,15.2c0.34,10.01,3.85,19.22,10.77,25.55
				c3.39,3.15,7.87,5.88,12.44,7.81c4.65,1.95,9.61,3.05,14.73,3.39c10.27,0.74,21.04-2.19,31.13-7.14
				C96.53,189.85,106.02,182.95,115.09,175.24z"/>
			<path d="M19.02,187.7c4.98,4.38,11.3,6.28,17.31,5.84c3.01-0.22,5.95-0.81,8.72-1.87c2.7-1.05,5.45-2.48,8.07-4.11
				c10.51-6.39,19.14-15.41,25.83-25.57c3.37-5.06,6.26-10.48,8.49-15.9c2.18-5.53,3.89-11.35,5.25-17.45
				c1.37-6.09,2.59-12.41,3.9-18.92c0.67-3.25,1.41-6.53,2.25-9.85c0.39-1.62,0.88-3.37,1.4-5.13c0.55-1.73,1.11-3.47,1.77-5.16
				c5.23-13.57,14.02-25.73,25.5-34.71c2.92-2.21,5.84-4.24,9.2-6.12c3.28-1.81,6.65-3.22,10.04-4.44c3.39-1.2,6.81-2.15,10.25-2.94
				c3.46-0.7,6.91-1.32,10.39-1.67c13.84-1.43,28.08-0.28,41.11,5.02c6.46,2.65,12.58,6.47,17.32,11.59
				c2.4,2.52,4.34,5.43,5.94,8.42c1.54,3.05,2.55,6.28,3.19,9.5c-3.01-5.89-7.2-10.83-12.29-14.32c-5.09-3.49-10.82-5.8-16.78-7.12
				c-11.91-2.69-24.5-2.14-36.41,0.33c-5.96,1.24-11.76,3.04-17.16,5.37c-2.67,1.2-5.24,2.53-7.62,3.98
				c-2.27,1.43-4.64,3.26-6.83,5.11c-4.36,3.79-8.31,8.09-11.6,12.88c-3.33,4.74-6.09,9.9-8.13,15.31
				c-1.06,2.76-1.89,5.31-2.67,8.39c-0.81,3-1.5,6.09-2.24,9.22c-1.49,6.25-2.84,12.74-4.69,19.3c-1.84,6.55-4.08,13.24-7.24,19.63
				c-3.17,6.47-7.05,12.31-11.46,17.73c-8.8,10.81-20.01,19.89-32.97,25.09c-1.61,0.66-3.25,1.22-4.91,1.74
				c-1.63,0.55-3.46,1-5.21,1.31c-3.55,0.6-7.17,0.68-10.68,0.11c-3.5-0.54-6.91-1.7-9.86-3.53
				C23.26,192.91,20.76,190.51,19.02,187.7z"/>
		</g>
	</g>
	<g>
		<g>
			<path d="M95.46,138.54c-4.1-0.3-7.84-0.92-11.92-1.96c-2.36-0.71-4.34-2.51-5.56-4.67c-1.21-2.18-1.58-4.81-1.07-7.29
				c0.54-2.47,1.95-4.72,3.95-6.22c1.99-1.47,4.53-2.32,6.98-2c4.15,0.72,7.81,1.68,11.68,3.09c-3.96,0.63-8.11,0.7-11.8,0.73
				c-3.01,0.24-5.44,2.67-6.02,5.42c-0.6,2.75,0.63,5.96,3.28,7.41C88.34,134.59,92.1,136.36,95.46,138.54z"/>
			<path d="M97.92,112.08c-1.9-0.32-3.72-0.83-5.53-1.33l-2.69-0.83c-0.45-0.13-0.89-0.29-1.33-0.45l-0.66-0.23l-0.81-0.36
				c-2.18-1.05-3.67-3.15-4.41-5.32c-0.74-2.2-0.72-4.59-0.07-6.8c0.68-2.19,1.99-4.19,3.83-5.62c1.82-1.39,4.22-2.32,6.63-1.98
				l0.87,0.15l0.68,0.17c0.45,0.12,0.91,0.22,1.35,0.36l2.7,0.8c1.79,0.6,3.58,1.18,5.34,1.97c-1.92,0.23-3.8,0.26-5.68,0.29
				l-2.81-0.04c-0.47,0-0.94-0.03-1.4-0.06l-0.7-0.04l-0.51,0.02c-2.71,0.21-4.99,2.62-5.82,5.31c-0.81,2.69-0.25,5.97,1.89,7.65
				l0.42,0.3l0.6,0.36c0.4,0.24,0.81,0.47,1.2,0.73l2.36,1.53C94.9,109.76,96.45,110.83,97.92,112.08z"/>
			<path d="M105.53,89.93c-1.75-0.79-3.37-1.74-5-2.68l-2.38-1.48c-0.4-0.24-0.78-0.51-1.17-0.77c-0.36-0.23-0.8-0.55-1.27-0.96
				c-1.82-1.57-2.71-3.97-2.87-6.25c-0.14-2.32,0.5-4.62,1.72-6.57c1.24-1.93,3.05-3.5,5.21-4.36c2.13-0.83,4.68-1.05,6.89-0.07
				c0.57,0.26,1.05,0.52,1.41,0.75c0.4,0.24,0.8,0.47,1.19,0.73l2.35,1.52c1.54,1.07,3.09,2.13,4.55,3.38
				c-1.9-0.31-3.7-0.81-5.52-1.3l-5.14-1.61c-2.67-0.54-5.5,1.13-6.99,3.48c-1.49,2.35-1.79,5.63-0.16,7.81l3.65,3.96
				C103.21,86.93,104.44,88.35,105.53,89.93z"/>
			<path d="M117.81,69.46c-1.5-1.17-2.84-2.47-4.18-3.75l-1.94-1.99c-0.65-0.7-1.22-1.24-1.94-2.28c-1.34-1.95-1.64-4.46-1.22-6.71
				c0.43-2.27,1.65-4.34,3.34-5.9c1.71-1.53,3.9-2.53,6.2-2.74c2.28-0.18,4.75,0.36,6.56,1.89c0.96,0.82,1.44,1.44,2.07,2.16
				l1.78,2.13c1.14,1.47,2.3,2.93,3.31,4.54c-1.71-0.84-3.27-1.85-4.85-2.84l-2.3-1.56c-0.74-0.49-1.56-1.19-2.09-1.43
				c-2.41-1.27-5.54-0.5-7.56,1.32c-2.02,1.82-3.1,4.86-2.07,7.39c0.19,0.55,0.8,1.43,1.21,2.22l1.32,2.44
				C116.3,66.02,117.14,67.68,117.81,69.46z"/>
			<path d="M135.4,54.89c-1.32-1.37-2.46-2.85-3.6-4.31l-1.64-2.24c-0.55-0.79-1.03-1.4-1.6-2.53c-1.05-2.12-0.98-4.65-0.25-6.82
				c0.75-2.19,2.25-4.06,4.15-5.36c1.91-1.27,4.21-1.96,6.53-1.84c2.28,0.14,4.66,1.03,6.23,2.8c0.84,0.95,1.22,1.63,1.75,2.43
				l1.46,2.36c0.93,1.61,1.86,3.22,2.64,4.96c-1.57-1.08-2.98-2.29-4.4-3.49l-2.06-1.87c-0.67-0.59-1.38-1.4-1.87-1.71
				c-2.2-1.6-5.41-1.28-7.67,0.24c-2.25,1.52-3.76,4.37-3.1,7.02c0.11,0.57,0.59,1.53,0.89,2.38l0.96,2.61
				C134.39,51.27,134.99,53.03,135.4,54.89z"/>
		</g>
		<circle cx="87.24" cy="126.39" r="1.83"/>
		<circle cx="92.59" cy="99.2" r="1.83"/>
		<circle cx="103.12" cy="76.59" r="1.83"/>
		<circle cx="118.65" cy="56.73" r="1.83"/>
		<circle cx="138.1" cy="41.58" r="1.83"/>
	</g>
	<path d="M175.56,218.73c11.26-2.73,22.99-4.88,35.32-2.86c3.03,0.55,6.16,1.29,9.01,2.55c1.45,0.58,2.93,1.15,4.36,1.81l4.13,2.32
		c5.36,3.32,10.33,7.5,14.26,12.39l1.53,1.8l1.37,1.89c0.89,1.27,1.87,2.52,2.69,3.83c1.61,2.63,3.24,5.28,4.58,8.01
		c2.88,5.42,5.11,11.02,7.18,16.6c4.09,11.18,7.08,22.44,10.55,33.07c3.47,10.63,7.56,20.86,13.18,29.88
		c2.82,4.49,6.02,8.65,9.69,12.31c3.72,3.56,7.73,6.79,12.39,9.2c4.6,2.46,9.57,4.35,14.78,5.61c5.21,1.23,10.63,1.74,16.09,1.64
		c10.99-0.04,21.96-3.43,31.93-9.44c-7.91,8.58-19.15,14.45-31.17,16.59c-6.01,1.07-12.23,1.38-18.42,0.71
		c-6.18-0.7-12.31-2.26-18.16-4.72c-5.87-2.37-11.34-5.98-16.19-10.11c-4.86-4.14-8.93-9.05-12.52-14.15
		c-3.55-5.14-6.44-10.61-9.02-16.12c-2.49-5.55-4.59-11.19-6.47-16.84c-3.63-11.34-6.38-22.48-9.76-33.15
		c-1.67-5.34-3.51-10.56-5.68-15.53c-2.13-5.02-4.65-9.75-7.64-14.08c-2.9-4.44-6.56-8.17-10.6-11.49l-3.15-2.36
		c-1.12-0.69-2.28-1.3-3.42-1.99c-2.25-1.47-4.71-2.38-7.25-3.3C198.91,219.16,187.16,219.16,175.56,218.73z"/>
	<path d="M143.39,198.74c2.8-1.67,6.54-1.67,9.77-0.55c3.33,1.12,6.1,3.36,8.49,5.69c4.58,4.8,8.49,9.84,12.19,15.11
		c7.46,10.44,13.8,21.32,21.17,31.06c7.32,9.74,15.71,18.55,26.02,24.36c10.33,5.63,22.7,8.5,35.18,5.32
		c-5.4,3.52-12.07,5.16-18.73,5.33c-6.69,0.08-13.41-1.31-19.66-3.91c-12.63-5.24-22.63-14.94-30.45-25.35
		c-7.89-10.51-13.81-21.87-19.82-32.85c-3.05-5.43-6.1-11.01-9.47-16.06c-1.65-2.5-3.6-4.73-6.03-6.31
		C149.6,199.02,146.55,198.1,143.39,198.74z"/>
</g>
</svg>
